PathFileType	4	(X/Y/Z)	C:\Users\Owen\Repositories\CapacitiveSensingKinematics\CSOptimalControl\OutputData\FilteredlIMUGyros.trc
DataRate	CameraRate	NumFrames	NumMarkers	Units	OrigDataRate	OrigDataStartFrame	OrigNumFrames
100	100	18	8	m	100	882	7057
Frame#	Time	/bodyset/torso/torso_imu_offset			/bodyset/pelvis/pelvis_imu_offset			/bodyset/tibia_r/tibia_r_imu_offset			/bodyset/femur_r/femur_r_imu_offset			/bodyset/tibia_l/tibia_l_imu_offset			/bodyset/femur_l/femur_l_imu_offset			/bodyset/toes_r/toes_r_imu_offset			/bodyset/toes_l/toes_l_imu_offset			
		X1	Y1	Z1	X2	Y2	Z2	X3	Y3	Z3	X4	Y4	Z4	X5	Y5	Z5	X6	Y6	Z6	X7	Y7	Z7	X8	Y8	Z8	

883	8.82	-0.6098425034556274	-0.3571802586782422	-0.0544097103602164	-0.2939343922883235	0.1495696738967456	0.3712684807680171	1.58694426239773	-1.079908592409174	2.919808061142584	0.2428839378501651	0.4929609914026911	0.8639189475785642	0.256576520204803	0.3918707114116146	0.9454384543158156	0.7933861100451535	-0.210495286778449	0.4589507100940913	-1.677416601076463	4.209666436276652	2.180894622731843	-0.1687149407677301	0.01018399560420175	0.2255815905430089	
884	8.83	-0.6031674326847296	-0.3315937024259888	-0.05008020919784005	-0.2852649292011772	0.1919513771417485	0.3518329673060492	2.064664809001338	-0.9608373416615519	3.257848181051207	0.4227243671300678	0.4334395580934098	0.7907244962029385	0.2596651727750739	0.3916657951083194	0.9470221617524313	0.5523729185024259	-0.1794950459597711	0.4541909454925046	-1.856924676384092	4.41620477089604	1.851707404960179	-0.2009198104036529	0.04532490236358323	0.2550900971291514	
885	8.84	-0.5930535352074477	-0.3150596743872681	-0.05489248762168306	-0.2739671169607195	0.2210779026084554	0.3200931953851595	2.357980284838485	-0.8211834825351048	3.626286546155308	0.5467159053097508	0.368122403249955	0.7134769845765906	0.2662112118883201	0.3944092765785917	0.9432638575847699	0.3058361369013622	-0.1589066052680869	0.4587094641497275	-1.967947509946743	4.513524927105277	1.506692576581404	-0.2312224619231376	0.0791191609632959	0.2861506478348	
886	8.85	-0.578358246911961	-0.3075439204785969	-0.06783862260741913	-0.2618159519075353	0.2358850569220761	0.2786002861207704	2.46535431854827	-0.6802379316233588	3.983451358650859	0.6045548753988237	0.2975613277117229	0.631679297280803	0.2522707682912135	0.3998159635265471	0.9335023548185846	0.08614101545476335	-0.1472862046377316	0.4757314947986218	-1.986569379858156	4.525215460015679	1.212671523913272	-0.2573158002937642	0.1078026170877392	0.3136823505426392	
887	8.859999999999999	-0.5593935741854031	-0.3062027145748368	-0.08643124984911164	-0.2512747765604419	0.2379343515988296	0.2306478486478796	2.390780066017745	-0.5620086272426558	4.291302141119876	0.5973805365017502	0.2226478961147706	0.5448666985056365	0.20783011683032	0.4061810063703241	0.9183085272222348	-0.08175975276649503	-0.1429592416205642	0.5051289555091802	-1.922746691848881	4.476486875549664	1.02538907505205	-0.2775840843685899	0.127944518660206	0.3319866090836025	
888	8.869999999999999	-0.5371940174910802	-0.3068235034927805	-0.1073902352882199	-0.2438213646745964	0.2304911884747942	0.1795610242318441	2.135777906072831	-0.4846387694507707	4.52353676692616	0.5353421471273514	0.1459548855002464	0.4524380702846325	0.1391727581387751	0.411648218140047	0.9009048412291064	-0.1842218720542727	-0.1442335410036932	0.5433985104002843	-1.804772836940325	4.387777011501801	0.9780380116606645	-0.2912132081395953	0.1380996278633153	0.3366419716703605	
889	8.880000000000001	-0.5126704724953689	-0.3055973277388501	-0.1275105905305617	-0.2387357205532199	0.2173808617540306	0.12889976573349	1.703599050981651	-0.4539006491374498	4.669527187648801	0.4344313727150739	0.07250411925743901	0.3534771637861719	0.0599720670963698	0.415307282464484	0.8861345637362007	-0.2197648930391275	-0.1493205762279206	0.5850600228409062	-1.659210605166801	4.276534851074035	1.073299184933603	-0.2975042216390248	0.1385701582095377	0.326353586400142	
890	8.890000000000001	-0.4862686946412688	-0.3001004491401561	-0.1443675640226914	-0.233362256288611	0.2021124768514856	0.08243771764089876	1.12235978541859	-0.4638848059896613	4.736184696734598	0.3135688662943146	0.008698909960146694	0.2465689501938683	-0.01841999351297888	0.4168666759402326	0.8766786610682998	-0.1977665842888401	-0.1560372253161066	0.6243972860296975	-1.503043903591335	4.160713393360901	1.283409779947638	-0.2958316104381417	0.1301409063126025	0.3033911197783445	
891	8.9	-0.4582549858545529	-0.2892769715573946	-0.1566657046980705	-0.2243994988364665	0.1874568553541027	0.04334947615571163	0.4748111962992483	-0.5020818600448722	4.746446392776186	0.1915457742663558	-0.04069839821184211	0.1301465895423806	-0.08883801056565832	0.4158320489195147	0.8710481933643024	-0.1354407160887726	-0.1616432663886285	0.6571709346635489	-1.349240703492254	4.059657048826037	1.559607042489432	-0.2862360532922388	0.1137128376426684	0.272407388094306	
892	8.91	-0.4291415321979968	-0.2729844579973889	-0.1641019059459483	-0.2091416708646124	0.1753272696757203	0.01328582350897542	-0.09974207077071068	-0.554054191350251	4.730950757922024	0.08381110864036503	-0.07553351016925546	0.00338522108389103	-0.1458833477262427	0.4121968814029116	0.8657783109256315	-0.05310952357066562	-0.1634175136459687	0.6819191862623418	-1.212061309742854	3.992767627103743	1.847819938004906	-0.2696099512073906	0.09071320093349597	0.2385704361819569	
893	8.92	-0.3998558197857947	-0.2515974473272478	-0.1669413542290753	-0.1862550771325862	0.166586311853577	-0.007920030247702516	-0.4485144229325907	-0.6056574370361125	4.714692814612819	-9.728891119463803e-05	-0.1007837842794759	-0.132896008602833	-0.1850809757403934	0.4074756773476484	0.85907519780806	0.03098928226140007	-0.1597893877039143	0.6998614510978098	-1.102506731190221	3.976497852904501	2.104397643796031	-0.2474116677930808	0.06333114346593606	0.2060536795163867	
894	8.93	-0.3715761484874689	-0.225923925720403	-0.1655843214922055	-0.1561358399756978	0.1607848412937895	-0.02197905746869904	-0.4677096766462806	-0.6432120644950303	4.707879951420401	-0.05759793524015555	-0.1240475257436733	-0.2758485182678855	-0.2031645367195394	0.4037817279219467	0.8522616202264417	0.1045321043813566	-0.1509552456313078	0.7135329511149381	-1.019979322817796	4.018382625987123	2.306385044868338	-0.2213469625469144	0.03407758912643687	0.1774474661275106	
895	8.94	-0.3453479705659416	-0.1972731540278617	-0.160271122095934	-0.1207159792727758	0.1562980974791722	-0.03145113575743295	-0.1447513944349263	-0.6525676576697034	4.707530489968368	-0.09202357246859626	-0.1513771330658619	-0.4209015307171312	-0.1977950898117487	0.4021945460849699	0.8483825949390357	0.1625706681440331	-0.138431037549561	0.7252361141391901	-0.9513848710378624	4.109248900349408	2.454320102472973	-0.1933675827920346	0.004901422820412935	0.1540248679476576	
896	8.949999999999999	-0.3217329801809543	-0.1672188063466198	-0.1510916967659398	-0.08267068122082943	0.1511504428243396	-0.03857311792816152	0.437831383219688	-0.6202406840532266	4.705153679495067	-0.1099647375800005	-0.1837740224782327	-0.562532933756741	-0.1678942758643733	0.4028170555130445	0.8501864749183036	0.20666267015165	-0.1239097267779902	0.7359047433136849	-0.8790482629035417	4.219976637075824	2.568068728726741	-0.1656098311250299	-0.02314279720466859	0.1362762464199777	
897	8.960000000000001	-0.3007157439050173	-0.1371301235880578	-0.1382796124257394	-0.04457051685656515	0.1442362841022192	-0.0441306706155265	1.132456055220487	-0.5398759096432776	4.691073868264506	-0.1179625476353169	-0.2162799627996542	-0.6950945279488924	-0.1150840464403877	0.4055776948708254	0.8595651359901635	0.2422598707141178	-0.1084451640877533	0.7447728417984514	-0.7890240959342429	4.308856212943803	2.676912162142306	-0.1397326482556037	-0.04947873343777295	0.1241507348730571	
898	8.970000000000001	-0.2819101328544171	-0.1079799717513445	-0.1224100013587641	-0.008751261363315999	0.1360877099732879	-0.0473897166841516	1.77722845985529	-0.4194210189336025	4.653007700500145	-0.1191264430498222	-0.2402925858060316	-0.8133059964672819	-0.0437518176110957	0.4102429265505744	0.8775998615489564	0.27537690353068	-0.09249912145660223	0.7500685710426606	-0.6734553540774767	4.337229993645273	2.806025745126169	-0.1165397114939033	-0.07386050004109672	0.1171557567364629	
899	8.98	-0.2648602990151896	-0.08043490887331677	-0.104284759811247	0.02227013984832683	0.1286147128049228	-0.04706738225282837	2.248227142197707	-0.27940728667462	4.574710792705572	-0.1107656211907536	-0.2482370052707651	-0.9123629784062623	0.04046737874531849	0.4170044344544864	0.9035472779009992	0.3098458085823992	-0.07596652931436891	0.7499708038288126	-0.530388978703886	4.28327631527436	2.962849081678741	-0.0967079801312045	-0.09668607809333357	0.114747245412775	
900	8.99	-0.2491473555328481	-0.05488466193563834	-0.08477352796684265	0.04604413339205654	0.1241346805869454	-0.0421281437574564	2.488987987808863	-0.142746762888726	4.439662351199552	-0.08478250076769092	-0.2384072767255979	-0.9878993212309163	0.129794860132954	0.4279211410957933	0.9342805564286321	0.3459212686989247	-0.05789314555203533	0.7429372959401407	-0.3657356364020084	4.145589741189005	3.12745200783306	-0.08146480779979884	-0.1189977832382796	0.1167507669674842	
